<mxfile host="app.diagrams.net" agent="Mozilla/5.0 (X11; Linux x86_64; rv:130.0) Gecko/20100101 Firefox/130.0" version="24.7.13">
  <diagram name="Page-1" id="kOhRegQwsyw8fJpyO_F6">
    <mxGraphModel dx="1414" dy="732" grid="1" gridSize="10" guides="1" tooltips="1" connect="1" arrows="1" fold="1" page="1" pageScale="1" pageWidth="850" pageHeight="1100" math="0" shadow="0">
      <root>
        <mxCell id="0" />
        <mxCell id="1" parent="0" />
        <mxCell id="Z1Wn9aBYAyXMYUmShWUE-3" value="" style="whiteSpace=wrap;html=1;aspect=fixed;" parent="1" vertex="1">
          <mxGeometry x="60" y="10" width="740" height="740" as="geometry" />
        </mxCell>
        <mxCell id="Z1Wn9aBYAyXMYUmShWUE-8" value="" style="edgeStyle=orthogonalEdgeStyle;rounded=0;orthogonalLoop=1;jettySize=auto;html=1;" parent="1" source="Z1Wn9aBYAyXMYUmShWUE-4" target="Z1Wn9aBYAyXMYUmShWUE-3" edge="1">
          <mxGeometry relative="1" as="geometry" />
        </mxCell>
        <mxCell id="Z1Wn9aBYAyXMYUmShWUE-9" value="" style="edgeStyle=orthogonalEdgeStyle;rounded=0;orthogonalLoop=1;jettySize=auto;html=1;" parent="1" source="Z1Wn9aBYAyXMYUmShWUE-4" target="Z1Wn9aBYAyXMYUmShWUE-3" edge="1">
          <mxGeometry relative="1" as="geometry" />
        </mxCell>
        <mxCell id="Z1Wn9aBYAyXMYUmShWUE-4" value="&lt;div&gt;User&lt;/div&gt;" style="shape=umlActor;verticalLabelPosition=bottom;verticalAlign=top;html=1;" parent="1" vertex="1">
          <mxGeometry x="10" y="350" width="30" height="60" as="geometry" />
        </mxCell>
        <mxCell id="Z1Wn9aBYAyXMYUmShWUE-6" value="" style="edgeStyle=orthogonalEdgeStyle;rounded=0;orthogonalLoop=1;jettySize=auto;html=1;" parent="1" source="Z1Wn9aBYAyXMYUmShWUE-5" target="Z1Wn9aBYAyXMYUmShWUE-3" edge="1">
          <mxGeometry relative="1" as="geometry" />
        </mxCell>
        <mxCell id="Z1Wn9aBYAyXMYUmShWUE-7" value="" style="edgeStyle=orthogonalEdgeStyle;rounded=0;orthogonalLoop=1;jettySize=auto;html=1;" parent="1" source="Z1Wn9aBYAyXMYUmShWUE-5" target="Z1Wn9aBYAyXMYUmShWUE-3" edge="1">
          <mxGeometry relative="1" as="geometry" />
        </mxCell>
        <mxCell id="Z1Wn9aBYAyXMYUmShWUE-5" value="&lt;div&gt;DB&lt;/div&gt;" style="shape=umlActor;verticalLabelPosition=bottom;verticalAlign=top;html=1;" parent="1" vertex="1">
          <mxGeometry x="810" y="350" width="30" height="60" as="geometry" />
        </mxCell>
        <mxCell id="Z1Wn9aBYAyXMYUmShWUE-10" value="Create account" style="ellipse;whiteSpace=wrap;html=1;" parent="1" vertex="1">
          <mxGeometry x="360" y="20" width="140" height="70" as="geometry" />
        </mxCell>
        <mxCell id="Z1Wn9aBYAyXMYUmShWUE-11" value="&lt;div&gt;Sign in&lt;/div&gt;" style="ellipse;whiteSpace=wrap;html=1;" parent="1" vertex="1">
          <mxGeometry x="360" y="110" width="140" height="70" as="geometry" />
        </mxCell>
        <mxCell id="Z1Wn9aBYAyXMYUmShWUE-12" value="Display contacts" style="ellipse;whiteSpace=wrap;html=1;" parent="1" vertex="1">
          <mxGeometry x="360" y="200" width="140" height="70" as="geometry" />
        </mxCell>
        <mxCell id="D7zOhH0e1NIYbT_6Ivhm-33" style="edgeStyle=orthogonalEdgeStyle;rounded=0;orthogonalLoop=1;jettySize=auto;html=1;exitX=1;exitY=1;exitDx=0;exitDy=0;entryX=1;entryY=1;entryDx=0;entryDy=0;" edge="1" parent="1" source="D7zOhH0e1NIYbT_6Ivhm-1" target="D7zOhH0e1NIYbT_6Ivhm-31">
          <mxGeometry relative="1" as="geometry" />
        </mxCell>
        <mxCell id="D7zOhH0e1NIYbT_6Ivhm-1" value="Create contact" style="ellipse;whiteSpace=wrap;html=1;" vertex="1" parent="1">
          <mxGeometry x="360" y="290" width="140" height="70" as="geometry" />
        </mxCell>
        <mxCell id="D7zOhH0e1NIYbT_6Ivhm-2" value="Provide contact details" style="ellipse;whiteSpace=wrap;html=1;" vertex="1" parent="1">
          <mxGeometry x="590" y="260" width="140" height="70" as="geometry" />
        </mxCell>
        <mxCell id="D7zOhH0e1NIYbT_6Ivhm-3" value="&amp;lt;&amp;lt;include&amp;gt;&amp;gt;" style="endArrow=open;endSize=12;dashed=1;html=1;rounded=0;entryX=0.021;entryY=0.643;entryDx=0;entryDy=0;entryPerimeter=0;" edge="1" parent="1" source="D7zOhH0e1NIYbT_6Ivhm-1" target="D7zOhH0e1NIYbT_6Ivhm-2">
          <mxGeometry width="160" relative="1" as="geometry">
            <mxPoint x="500" y="325" as="sourcePoint" />
            <mxPoint x="660" y="325" as="targetPoint" />
          </mxGeometry>
        </mxCell>
        <mxCell id="D7zOhH0e1NIYbT_6Ivhm-34" style="edgeStyle=orthogonalEdgeStyle;rounded=0;orthogonalLoop=1;jettySize=auto;html=1;exitX=1;exitY=0;exitDx=0;exitDy=0;entryX=1;entryY=1;entryDx=0;entryDy=0;" edge="1" parent="1" source="D7zOhH0e1NIYbT_6Ivhm-6" target="D7zOhH0e1NIYbT_6Ivhm-31">
          <mxGeometry relative="1" as="geometry" />
        </mxCell>
        <mxCell id="D7zOhH0e1NIYbT_6Ivhm-6" value="Update contact" style="ellipse;whiteSpace=wrap;html=1;" vertex="1" parent="1">
          <mxGeometry x="360" y="390" width="140" height="70" as="geometry" />
        </mxCell>
        <mxCell id="D7zOhH0e1NIYbT_6Ivhm-35" style="edgeStyle=orthogonalEdgeStyle;rounded=0;orthogonalLoop=1;jettySize=auto;html=1;exitX=1;exitY=1;exitDx=0;exitDy=0;" edge="1" parent="1" source="D7zOhH0e1NIYbT_6Ivhm-7">
          <mxGeometry relative="1" as="geometry">
            <mxPoint x="750" y="200" as="targetPoint" />
          </mxGeometry>
        </mxCell>
        <mxCell id="D7zOhH0e1NIYbT_6Ivhm-7" value="Delete contact" style="ellipse;whiteSpace=wrap;html=1;" vertex="1" parent="1">
          <mxGeometry x="360" y="490" width="140" height="70" as="geometry" />
        </mxCell>
        <mxCell id="D7zOhH0e1NIYbT_6Ivhm-36" style="edgeStyle=orthogonalEdgeStyle;rounded=0;orthogonalLoop=1;jettySize=auto;html=1;exitX=1;exitY=1;exitDx=0;exitDy=0;" edge="1" parent="1" source="D7zOhH0e1NIYbT_6Ivhm-8">
          <mxGeometry relative="1" as="geometry">
            <mxPoint x="750" y="200" as="targetPoint" />
          </mxGeometry>
        </mxCell>
        <mxCell id="D7zOhH0e1NIYbT_6Ivhm-8" value="Search contact" style="ellipse;whiteSpace=wrap;html=1;" vertex="1" parent="1">
          <mxGeometry x="360" y="600" width="140" height="70" as="geometry" />
        </mxCell>
        <mxCell id="D7zOhH0e1NIYbT_6Ivhm-9" value="Search selected contact" style="ellipse;whiteSpace=wrap;html=1;" vertex="1" parent="1">
          <mxGeometry x="590" y="440" width="140" height="70" as="geometry" />
        </mxCell>
        <mxCell id="D7zOhH0e1NIYbT_6Ivhm-10" value="&amp;lt;&amp;lt;include&amp;gt;&amp;gt;" style="endArrow=open;endSize=12;dashed=1;html=1;rounded=0;entryX=0;entryY=0;entryDx=0;entryDy=0;" edge="1" parent="1" source="D7zOhH0e1NIYbT_6Ivhm-6" target="D7zOhH0e1NIYbT_6Ivhm-9">
          <mxGeometry width="160" relative="1" as="geometry">
            <mxPoint x="500" y="425" as="sourcePoint" />
            <mxPoint x="660" y="425" as="targetPoint" />
          </mxGeometry>
        </mxCell>
        <mxCell id="D7zOhH0e1NIYbT_6Ivhm-12" value="&amp;lt;&amp;lt;include&amp;gt;&amp;gt;" style="endArrow=open;endSize=12;dashed=1;html=1;rounded=0;entryX=0;entryY=1;entryDx=0;entryDy=0;" edge="1" parent="1" source="D7zOhH0e1NIYbT_6Ivhm-7" target="D7zOhH0e1NIYbT_6Ivhm-9">
          <mxGeometry width="160" relative="1" as="geometry">
            <mxPoint x="500" y="525" as="sourcePoint" />
            <mxPoint x="660" y="525" as="targetPoint" />
          </mxGeometry>
        </mxCell>
        <mxCell id="D7zOhH0e1NIYbT_6Ivhm-13" value="&lt;div&gt;Provide search&lt;/div&gt;&lt;div&gt;parameter&lt;br&gt;&lt;/div&gt;" style="ellipse;whiteSpace=wrap;html=1;" vertex="1" parent="1">
          <mxGeometry x="590" y="570" width="140" height="70" as="geometry" />
        </mxCell>
        <mxCell id="D7zOhH0e1NIYbT_6Ivhm-15" value="&amp;lt;&amp;lt;include&amp;gt;&amp;gt;" style="endArrow=open;endSize=12;dashed=1;html=1;rounded=0;entryX=0;entryY=0.5;entryDx=0;entryDy=0;" edge="1" parent="1" source="D7zOhH0e1NIYbT_6Ivhm-8" target="D7zOhH0e1NIYbT_6Ivhm-13">
          <mxGeometry width="160" relative="1" as="geometry">
            <mxPoint x="500" y="635" as="sourcePoint" />
            <mxPoint x="660" y="635" as="targetPoint" />
          </mxGeometry>
        </mxCell>
        <mxCell id="D7zOhH0e1NIYbT_6Ivhm-19" value="&lt;div&gt;Provide login&lt;/div&gt;&lt;div&gt;credentials&lt;br&gt;&lt;/div&gt;" style="ellipse;whiteSpace=wrap;html=1;" vertex="1" parent="1">
          <mxGeometry x="590" y="20" width="140" height="70" as="geometry" />
        </mxCell>
        <mxCell id="D7zOhH0e1NIYbT_6Ivhm-20" value="&amp;lt;&amp;lt;include&amp;gt;&amp;gt;" style="endArrow=open;endSize=12;dashed=1;html=1;rounded=0;entryX=0;entryY=0;entryDx=0;entryDy=0;" edge="1" parent="1" source="Z1Wn9aBYAyXMYUmShWUE-10" target="D7zOhH0e1NIYbT_6Ivhm-19">
          <mxGeometry width="160" relative="1" as="geometry">
            <mxPoint x="500" y="55" as="sourcePoint" />
            <mxPoint x="660" y="55" as="targetPoint" />
          </mxGeometry>
        </mxCell>
        <mxCell id="D7zOhH0e1NIYbT_6Ivhm-21" value="&amp;lt;&amp;lt;include&amp;gt;&amp;gt;" style="endArrow=open;endSize=12;dashed=1;html=1;rounded=0;entryX=0;entryY=1;entryDx=0;entryDy=0;" edge="1" parent="1" source="Z1Wn9aBYAyXMYUmShWUE-11" target="D7zOhH0e1NIYbT_6Ivhm-19">
          <mxGeometry width="160" relative="1" as="geometry">
            <mxPoint x="500" y="145" as="sourcePoint" />
            <mxPoint x="660" y="145" as="targetPoint" />
          </mxGeometry>
        </mxCell>
        <mxCell id="D7zOhH0e1NIYbT_6Ivhm-31" value="Verify user" style="ellipse;whiteSpace=wrap;html=1;" vertex="1" parent="1">
          <mxGeometry x="630" y="140" width="140" height="70" as="geometry" />
        </mxCell>
        <mxCell id="D7zOhH0e1NIYbT_6Ivhm-32" value="&amp;lt;&amp;lt;extend&amp;gt;&amp;gt;" style="endArrow=open;endSize=12;dashed=1;html=1;rounded=0;entryX=1;entryY=0.5;entryDx=0;entryDy=0;" edge="1" parent="1" source="D7zOhH0e1NIYbT_6Ivhm-31" target="Z1Wn9aBYAyXMYUmShWUE-11">
          <mxGeometry width="160" relative="1" as="geometry">
            <mxPoint x="430" y="175" as="sourcePoint" />
            <mxPoint x="430" y="175" as="targetPoint" />
          </mxGeometry>
        </mxCell>
        <mxCell id="D7zOhH0e1NIYbT_6Ivhm-37" style="edgeStyle=orthogonalEdgeStyle;rounded=0;orthogonalLoop=1;jettySize=auto;html=1;exitX=1;exitY=0.5;exitDx=0;exitDy=0;entryX=0.5;entryY=0.5;entryDx=0;entryDy=0;entryPerimeter=0;" edge="1" parent="1" source="D7zOhH0e1NIYbT_6Ivhm-31" target="Z1Wn9aBYAyXMYUmShWUE-5">
          <mxGeometry relative="1" as="geometry" />
        </mxCell>
        <mxCell id="D7zOhH0e1NIYbT_6Ivhm-39" value="" style="endArrow=open;endFill=1;endSize=12;html=1;rounded=0;exitX=0.5;exitY=0.5;exitDx=0;exitDy=0;exitPerimeter=0;entryX=0;entryY=0.5;entryDx=0;entryDy=0;" edge="1" parent="1" source="Z1Wn9aBYAyXMYUmShWUE-4" target="Z1Wn9aBYAyXMYUmShWUE-10">
          <mxGeometry width="160" relative="1" as="geometry">
            <mxPoint x="80" y="380" as="sourcePoint" />
            <mxPoint x="240" y="380" as="targetPoint" />
          </mxGeometry>
        </mxCell>
        <mxCell id="D7zOhH0e1NIYbT_6Ivhm-40" value="" style="endArrow=open;endFill=1;endSize=12;html=1;rounded=0;exitX=0.5;exitY=0.617;exitDx=0;exitDy=0;exitPerimeter=0;entryX=0;entryY=0.5;entryDx=0;entryDy=0;" edge="1" parent="1" source="Z1Wn9aBYAyXMYUmShWUE-4" target="Z1Wn9aBYAyXMYUmShWUE-11">
          <mxGeometry width="160" relative="1" as="geometry">
            <mxPoint x="110" y="379.5" as="sourcePoint" />
            <mxPoint x="270" y="379.5" as="targetPoint" />
          </mxGeometry>
        </mxCell>
        <mxCell id="D7zOhH0e1NIYbT_6Ivhm-41" value="" style="endArrow=open;endFill=1;endSize=12;html=1;rounded=0;exitX=0.5;exitY=0.5;exitDx=0;exitDy=0;exitPerimeter=0;entryX=0;entryY=0.5;entryDx=0;entryDy=0;" edge="1" parent="1" source="Z1Wn9aBYAyXMYUmShWUE-4" target="D7zOhH0e1NIYbT_6Ivhm-8">
          <mxGeometry width="160" relative="1" as="geometry">
            <mxPoint x="340" y="370" as="sourcePoint" />
            <mxPoint x="500" y="370" as="targetPoint" />
          </mxGeometry>
        </mxCell>
        <mxCell id="D7zOhH0e1NIYbT_6Ivhm-42" value="" style="endArrow=open;endFill=1;endSize=12;html=1;rounded=0;exitX=0.5;exitY=0.5;exitDx=0;exitDy=0;exitPerimeter=0;entryX=0;entryY=0.5;entryDx=0;entryDy=0;" edge="1" parent="1" source="Z1Wn9aBYAyXMYUmShWUE-4" target="D7zOhH0e1NIYbT_6Ivhm-7">
          <mxGeometry width="160" relative="1" as="geometry">
            <mxPoint x="340" y="370" as="sourcePoint" />
            <mxPoint x="500" y="370" as="targetPoint" />
          </mxGeometry>
        </mxCell>
        <mxCell id="D7zOhH0e1NIYbT_6Ivhm-43" value="" style="endArrow=open;endFill=1;endSize=12;html=1;rounded=0;exitX=0.5;exitY=0.5;exitDx=0;exitDy=0;exitPerimeter=0;entryX=0;entryY=0.5;entryDx=0;entryDy=0;" edge="1" parent="1" source="Z1Wn9aBYAyXMYUmShWUE-4" target="D7zOhH0e1NIYbT_6Ivhm-6">
          <mxGeometry width="160" relative="1" as="geometry">
            <mxPoint x="340" y="370" as="sourcePoint" />
            <mxPoint x="500" y="370" as="targetPoint" />
          </mxGeometry>
        </mxCell>
        <mxCell id="D7zOhH0e1NIYbT_6Ivhm-44" value="" style="endArrow=open;endFill=1;endSize=12;html=1;rounded=0;exitX=0.5;exitY=0.5;exitDx=0;exitDy=0;exitPerimeter=0;entryX=0;entryY=0.5;entryDx=0;entryDy=0;" edge="1" parent="1" source="Z1Wn9aBYAyXMYUmShWUE-4" target="D7zOhH0e1NIYbT_6Ivhm-1">
          <mxGeometry width="160" relative="1" as="geometry">
            <mxPoint x="340" y="370" as="sourcePoint" />
            <mxPoint x="500" y="370" as="targetPoint" />
          </mxGeometry>
        </mxCell>
        <mxCell id="D7zOhH0e1NIYbT_6Ivhm-45" value="" style="endArrow=open;endFill=1;endSize=12;html=1;rounded=0;exitX=0.5;exitY=0.5;exitDx=0;exitDy=0;exitPerimeter=0;entryX=0;entryY=0.5;entryDx=0;entryDy=0;" edge="1" parent="1" source="Z1Wn9aBYAyXMYUmShWUE-4" target="Z1Wn9aBYAyXMYUmShWUE-12">
          <mxGeometry width="160" relative="1" as="geometry">
            <mxPoint x="340" y="370" as="sourcePoint" />
            <mxPoint x="500" y="370" as="targetPoint" />
          </mxGeometry>
        </mxCell>
      </root>
    </mxGraphModel>
  </diagram>
</mxfile>
